<svg width="117" height="36" viewBox="0 0 117 36" fill="none" xmlns="http://www.w3.org/2000/svg">
<path fill-rule="evenodd" clip-rule="evenodd" d="M24.2374 17.6752L16.8904 25.0832C15.5634 26.4202 13.3674 26.4022 11.9954 25.0412L7.35338 20.4362C5.98238 19.0752 5.94538 16.8802 7.27338 15.5422L18.3574 4.36719L20.2824 6.27619L9.19738 17.4532C8.89738 17.7552 8.90638 18.2512 9.21638 18.5592L13.8584 23.1642C14.1684 23.4722 14.6644 23.4752 14.9654 23.1742L22.3134 15.7662L24.2374 17.6752Z" fill="#B9B29E"/>
<path fill-rule="evenodd" clip-rule="evenodd" d="M61.8301 20.6883L61.8341 21.7753L55.4891 21.8003L55.4531 13.0573L61.6241 13.0312L61.6281 14.1183L56.7071 14.1382L56.7181 16.8242L61.1021 16.8063L61.1061 17.8682L56.7221 17.8863L56.7331 20.7092L61.8301 20.6883Z" fill="#1A1919"/>
<path fill-rule="evenodd" clip-rule="evenodd" d="M68.9598 17.5078C69.3748 17.1688 69.5808 16.6828 69.5788 16.0498C69.5758 15.4168 69.3658 14.9328 68.9478 14.5968C68.5298 14.2618 67.9258 14.0958 67.1348 14.0988L65.0108 14.1078L65.0268 18.0298L67.1508 18.0208C67.9418 18.0178 68.5448 17.8468 68.9598 17.5078ZM69.8438 13.8128C70.4958 14.3518 70.8238 15.0958 70.8278 16.0448C70.8318 16.9938 70.5098 17.7408 69.8618 18.2848C69.2148 18.8288 68.3248 19.1028 67.1918 19.1078L65.0308 19.1158L65.0428 21.7648L63.7928 21.7698L63.7578 13.0258L67.1678 13.0118C68.2998 13.0078 69.1918 13.2748 69.8438 13.8128Z" fill="#1A1919"/>
<path fill-rule="evenodd" clip-rule="evenodd" d="M93.7398 21.166C93.0348 20.782 92.4808 20.251 92.0778 19.574C91.6758 18.897 91.4728 18.134 91.4688 17.284C91.4658 16.435 91.6628 15.67 92.0598 14.99C92.4568 14.31 93.0088 13.774 93.7148 13.384C94.4208 12.994 95.2108 12.797 96.0858 12.793C96.7678 12.791 97.3928 12.903 97.9608 13.129C98.5278 13.356 99.0118 13.693 99.4138 14.142L98.6048 14.932C97.9448 14.243 97.1228 13.901 96.1398 13.905C95.4898 13.908 94.9038 14.056 94.3808 14.349C93.8568 14.643 93.4478 15.046 93.1548 15.56C92.8618 16.073 92.7158 16.646 92.7188 17.279C92.7208 17.912 92.8708 18.484 93.1688 18.995C93.4668 19.506 93.8788 19.906 94.4048 20.195C94.9298 20.485 95.5178 20.628 96.1678 20.625C97.1418 20.622 97.9608 20.269 98.6238 19.566L99.4388 20.35C99.0408 20.801 98.5568 21.145 97.9878 21.38C97.4188 21.616 96.7918 21.735 96.1098 21.737C95.2348 21.741 94.4458 21.551 93.7398 21.166Z" fill="#1A1919"/>
<path fill-rule="evenodd" clip-rule="evenodd" d="M51.7185 26.2517C52.3855 26.6367 52.9125 27.1677 53.2985 27.8437C53.6845 28.5217 53.8795 29.2847 53.8825 30.1337C53.8855 30.9837 53.6975 31.7487 53.3175 32.4287C52.9365 33.1087 52.4145 33.6437 51.7495 34.0337C51.0855 34.4237 50.3365 34.6207 49.5035 34.6237C48.7875 34.6267 48.1375 34.5127 47.5535 34.2817C46.9695 34.0517 46.4815 33.7117 46.0885 33.2637L46.8715 32.4737C47.5325 33.1627 48.3875 33.5037 49.4365 33.4997C49.9945 33.4977 50.5025 33.3727 50.9595 33.1257C51.4165 32.8777 51.7895 32.5327 52.0795 32.0897C52.3685 31.6477 52.5415 31.1437 52.5975 30.5767L48.3635 30.5937L48.3595 29.5697L52.5815 29.5527C52.4955 29.0117 52.3065 28.5337 52.0125 28.1177C51.7195 27.7027 51.3475 27.3797 50.8975 27.1477C50.4475 26.9167 49.9505 26.8017 49.4095 26.8047C48.3685 26.8087 47.5165 27.1577 46.8525 27.8517L46.0625 27.0677C46.4525 26.6167 46.9405 26.2727 47.5265 26.0377C48.1125 25.8017 48.7595 25.6827 49.4675 25.6797C50.3005 25.6767 51.0505 25.8677 51.7185 26.2517Z" fill="#1A1919"/>
<path fill-rule="evenodd" clip-rule="evenodd" d="M88.8817 30.125C89.2967 29.786 89.5027 29.3 89.5007 28.667C89.4977 28.034 89.2877 27.55 88.8697 27.214C88.4517 26.878 87.8477 26.712 87.0567 26.716L84.9327 26.724L84.9487 30.646L87.0727 30.638C87.8637 30.635 88.4667 30.464 88.8817 30.125ZM89.7657 26.43C90.4177 26.969 90.7457 27.712 90.7497 28.662C90.7537 29.611 90.4317 30.358 89.7837 30.902C89.1367 31.446 88.2467 31.72 87.1137 31.725L84.9537 31.733L84.9647 34.382L83.7147 34.387L83.6797 25.643L87.0897 25.629C88.2217 25.624 89.1137 25.891 89.7657 26.43Z" fill="#1A1919"/>
<path fill-rule="evenodd" clip-rule="evenodd" d="M98.8487 33.238L98.8527 34.325L92.5077 34.351L92.4727 25.607L98.6427 25.582L98.6467 26.668L93.7257 26.688L93.7367 29.374L98.1207 29.356L98.1257 30.418L93.7407 30.436L93.7527 33.259L98.8487 33.238Z" fill="#1A1919"/>
<path fill-rule="evenodd" clip-rule="evenodd" d="M102.318 33.8301C101.613 33.4461 101.059 32.9151 100.656 32.2381C100.254 31.5611 100.051 30.7981 100.047 29.9481C100.044 29.0991 100.241 28.3341 100.638 27.6541C101.035 26.9741 101.587 26.4381 102.293 26.0481C102.999 25.6581 103.789 25.4611 104.664 25.4571C105.346 25.4551 105.971 25.5671 106.539 25.7931C107.106 26.0201 107.59 26.3571 107.992 26.8061L107.183 27.5961C106.523 26.9071 105.701 26.5651 104.718 26.5691C104.069 26.5721 103.483 26.7201 102.959 27.0131C102.435 27.3071 102.026 27.7101 101.733 28.2241C101.44 28.7371 101.294 29.3101 101.297 29.9431C101.299 30.5761 101.449 31.1481 101.747 31.6591C102.045 32.1701 102.457 32.5701 102.983 32.8591C103.508 33.1491 104.096 33.2921 104.746 33.2891C105.72 33.2861 106.539 32.9321 107.202 32.2301L108.017 33.0141C107.619 33.4651 107.136 33.8091 106.566 34.0441C105.997 34.2801 105.37 34.3981 104.688 34.4011C103.813 34.4051 103.024 34.2141 102.318 33.8301Z" fill="#1A1919"/>
<path fill-rule="evenodd" clip-rule="evenodd" d="M16.4891 33.2113L14.6271 35.0883L3.58908 24.1403C0.122079 20.7013 0.0390792 15.1433 3.40408 11.7513L14.4941 0.570312L16.4191 2.48031L5.32808 13.6613C2.99108 16.0183 3.04608 19.8763 5.45108 22.2623L16.4891 33.2113Z" fill="#690E3B"/>
<path fill-rule="evenodd" clip-rule="evenodd" d="M27.3778 22.2366L18.3558 31.3316L16.4308 29.4226L25.4528 20.3266C26.8848 18.8826 26.8448 16.5146 25.3648 15.0466L22.2648 11.9716L14.3898 19.9106L12.4648 18.0006L22.2018 8.18359L27.2278 13.1686C29.7688 15.6906 29.8368 19.7576 27.3778 22.2366Z" fill="#690E3B"/>
<path fill-rule="evenodd" clip-rule="evenodd" d="M58.9569 4.84763C59.3719 4.50863 59.5779 4.02263 59.5759 3.38963C59.5729 2.75663 59.3629 2.27263 58.9449 1.93663C58.5269 1.60163 57.9229 1.43563 57.1319 1.43863L55.0079 1.44763L55.0239 5.36963L57.1469 5.36063C57.9379 5.35763 58.5419 5.18663 58.9569 4.84763ZM59.8409 1.15263C60.4929 1.69163 60.8209 2.43563 60.8249 3.38463C60.8289 4.33363 60.5069 5.08063 59.8589 5.62463C59.2119 6.16863 58.3219 6.44263 57.1889 6.44763L55.0289 6.45563L55.0389 9.10463L53.7899 9.10963L53.7539 0.365631L57.1649 0.351631C58.2969 0.346631 59.1889 0.614631 59.8409 1.15263Z" fill="#1A1919"/>
<path fill-rule="evenodd" clip-rule="evenodd" d="M66.0328 33.9785C65.3268 33.5945 64.7738 33.0635 64.3708 32.3865C63.9688 31.7095 63.7658 30.9455 63.7618 30.0965C63.7588 29.2475 63.9558 28.4825 64.3528 27.8025C64.7488 27.1225 65.3008 26.5865 66.0078 26.1965C66.7138 25.8065 67.5038 25.6095 68.3788 25.6055C69.0608 25.6035 69.6858 25.7155 70.2538 25.9415C70.8208 26.1685 71.3048 26.5055 71.7068 26.9545L70.8978 27.7445C70.2368 27.0555 69.4148 26.7135 68.4328 26.7175C67.7828 26.7205 67.1968 26.8685 66.6738 27.1615C66.1498 27.4555 65.7408 27.8585 65.4478 28.3725C65.1548 28.8855 65.0088 29.4585 65.0118 30.0915C65.0138 30.7245 65.1638 31.2965 65.4618 31.8075C65.7598 32.3185 66.1718 32.7185 66.6968 33.0075C67.2228 33.2975 67.8108 33.4405 68.4598 33.4375C69.4348 33.4345 70.2528 33.0805 70.9168 32.3785L71.7318 33.1625C71.3338 33.6135 70.8498 33.9575 70.2808 34.1925C69.7108 34.4285 69.0848 34.5465 68.4018 34.5495C67.5278 34.5535 66.7378 34.3625 66.0328 33.9785Z" fill="#1A1919"/>
<path fill-rule="evenodd" clip-rule="evenodd" d="M111.099 33.7949C110.393 33.4109 109.84 32.8799 109.437 32.2029C109.035 31.5259 108.832 30.7629 108.828 29.9129C108.825 29.0639 109.021 28.2989 109.419 27.6189C109.815 26.9389 110.367 26.4029 111.074 26.0129C111.78 25.6229 112.57 25.4259 113.444 25.4219C114.127 25.4199 114.752 25.5319 115.32 25.7579C115.887 25.9849 116.371 26.3219 116.773 26.7709L115.964 27.5609C115.303 26.8719 114.481 26.5299 113.499 26.5339C112.849 26.5369 112.263 26.6849 111.74 26.9779C111.216 27.2719 110.807 27.6749 110.514 28.1889C110.22 28.7019 110.075 29.2749 110.078 29.9079C110.08 30.5409 110.23 31.1129 110.528 31.6239C110.826 32.1349 111.237 32.5349 111.763 32.8239C112.289 33.1139 112.877 33.2569 113.526 33.2539C114.5 33.2509 115.319 32.8979 115.983 32.1949L116.798 32.9789C116.4 33.4299 115.916 33.7739 115.347 34.0089C114.777 34.2449 114.151 34.3629 113.468 34.3659C112.594 34.3699 111.804 34.1789 111.099 33.7949Z" fill="#1A1919"/>
<path fill-rule="evenodd" clip-rule="evenodd" d="M52.2612 1.45809L47.7642 1.47609L47.8082 9.13309L46.5712 9.13809L46.5352 0.394094L52.2692 0.371094L52.2612 1.45809Z" fill="#1A1919"/>
<path fill-rule="evenodd" clip-rule="evenodd" d="M67.3825 5.8665L65.4785 1.5895L63.6105 5.8815L67.3825 5.8665ZM67.8235 6.8635L63.1765 6.8825L62.2235 9.0725L60.9375 9.0775L64.8615 0.3175L66.0985 0.3125L70.1065 9.0405L68.7945 9.0455L67.8235 6.8635Z" fill="#1A1919"/>
<path fill-rule="evenodd" clip-rule="evenodd" d="M79.102 0.261719L79.138 9.00572L77.889 9.01172L77.873 5.11372L72.851 5.13472L72.867 9.03172L71.618 9.03672L71.582 0.292719L72.831 0.287719L72.847 4.04772L77.868 4.02672L77.853 0.266719L79.102 0.261719Z" fill="#1A1919"/>
<path fill-rule="evenodd" clip-rule="evenodd" d="M83.3527 6.22766C83.2017 7.03666 82.9567 7.59566 82.6167 7.90466L87.5507 7.88466L87.5237 1.31366L83.6887 1.32966L83.6337 3.16566C83.5967 4.39866 83.5027 5.41966 83.3527 6.22766ZM90.0737 7.87366L90.0857 10.8727L88.9237 10.8767L88.9157 8.96566L81.7217 8.99566L81.7167 10.9067L80.5547 10.9117V7.91366L80.9797 7.91166C81.5297 7.87566 81.9147 7.43866 82.1367 6.60166C82.3577 5.76366 82.4907 4.58166 82.5337 3.05866L82.6097 0.247656L88.7557 0.222656L88.7867 7.87966L90.0737 7.87366Z" fill="#1A1919"/>
<path fill-rule="evenodd" clip-rule="evenodd" d="M48.0601 21.3496C47.3541 20.9656 46.8011 20.4346 46.3981 19.7576C45.9961 19.0806 45.7931 18.3176 45.7891 17.4676C45.7861 16.6186 45.9831 15.8536 46.3801 15.1736C46.7771 14.4936 47.3281 13.9576 48.0351 13.5676C48.7411 13.1776 49.5311 12.9806 50.4061 12.9766C51.0881 12.9746 51.7131 13.0866 52.2811 13.3126C52.8481 13.5396 53.3321 13.8766 53.7341 14.3256L52.9251 15.1156C52.2641 14.4266 51.4421 14.0846 50.4601 14.0886C49.8101 14.0916 49.2241 14.2396 48.7011 14.5326C48.1771 14.8266 47.7681 15.2296 47.4751 15.7436C47.1811 16.2566 47.0361 16.8296 47.0391 17.4626C47.0411 18.0956 47.1911 18.6676 47.4891 19.1786C47.7871 19.6896 48.1981 20.0896 48.7241 20.3786C49.2501 20.6686 49.8381 20.8116 50.4871 20.8086C51.4611 20.8056 52.2801 20.4516 52.9441 19.7496L53.7591 20.5336C53.3611 20.9846 52.8771 21.3286 52.3081 21.5636C51.7381 21.7996 51.1121 21.9176 50.4291 21.9206C49.5551 21.9246 48.7651 21.7336 48.0601 21.3496Z" fill="#1A1919"/>
<path fill-rule="evenodd" clip-rule="evenodd" d="M78.5598 19.2227C78.5578 18.7227 78.3878 18.3547 78.0488 18.1187C77.7108 17.8827 77.2088 17.7657 76.5428 17.7687L73.8068 17.7807L73.8188 20.7407L76.5548 20.7297C77.8948 20.7237 78.5638 20.2217 78.5598 19.2227ZM73.8028 16.8307L76.2388 16.8207C76.8468 16.8187 77.3108 16.6957 77.6298 16.4527C77.9498 16.2107 78.1088 15.8557 78.1068 15.3897C78.1048 14.9227 77.9408 14.5677 77.6158 14.3237C77.2898 14.0787 76.8268 13.9577 76.2268 13.9607L73.7908 13.9707L73.8028 16.8307ZM79.3598 17.9267C79.6658 18.2867 79.8198 18.7507 79.8218 19.3177C79.8248 20.0757 79.5498 20.6637 78.9978 21.0817C78.4458 21.5007 77.6408 21.7117 76.5838 21.7167L72.5858 21.7327L72.5508 12.9887L76.3108 12.9727C77.2678 12.9697 78.0168 13.1607 78.5558 13.5447C79.0938 13.9307 79.3648 14.4847 79.3678 15.2097C79.3698 15.6837 79.2528 16.0887 79.0168 16.4227C78.7808 16.7567 78.4468 17.0077 78.0148 17.1767C78.6058 17.3157 79.0548 17.5657 79.3598 17.9267Z" fill="#1A1919"/>
<path fill-rule="evenodd" clip-rule="evenodd" d="M81.8828 12.949L83.1188 12.944L83.1468 19.689L88.2908 12.923L89.4398 12.918L89.4758 21.662L88.2518 21.667L88.2238 14.934L83.0678 21.688L81.9178 21.693L81.8828 12.949Z" fill="#1A1919"/>
<path fill-rule="evenodd" clip-rule="evenodd" d="M58.9547 30.6396L57.1307 30.6476L57.1457 34.4946L55.9217 34.4996L55.8867 25.7556L57.1107 25.7506L57.1257 29.5476L58.9757 29.5406L61.7077 25.7316L63.0437 25.7266L59.9387 29.9736L63.2297 34.4696L61.8057 34.4756L58.9547 30.6396Z" fill="#1A1919"/>
<path fill-rule="evenodd" clip-rule="evenodd" d="M80.9578 25.6523L80.9938 34.3963L79.7688 34.4013L79.7378 26.7443L74.6658 26.7643L74.6978 34.4223L73.4608 34.4263L73.4258 25.6833L80.9578 25.6523Z" fill="#1A1919"/>
<path fill-rule="evenodd" clip-rule="evenodd" d="M38.1462 35.0898L36.2582 35.0968L36.1172 0.433781L38.0052 0.425781L38.1462 35.0898Z" fill="#B9B29E"/>
</svg>
